/* XPM */
static char *result[] = {
/* columns rows colors chars-per-pixel */
"64 64 256 2 ",
"   c #090A05",
".  c #1A1A0A",
"X  c #151815",
"o  c #10110D",
"O  c #2B1B14",
"+  c #172415",
"@  c #24231C",
"#  c #29291C",
"$  c #343015",
"%  c #2A2925",
"&  c #362926",
"*  c #29362A",
"=  c #36372C",
"-  c #283935",
";  c #373835",
":  c #2D2830",
">  c #1B2324",
",  c #423A16",
"<  c #54332F",
"1  c #713634",
"2  c #5C2A1D",
"3  c #314536",
"4  c #4C4514",
"5  c #6A690E",
"6  c #46463A",
"7  c #53522F",
"8  c #685637",
"9  c #726F2A",
"0  c #723941",
"q  c #2E5149",
"w  c #366457",
"e  c #386F6B",
"r  c #124D46",
"t  c #47574B",
"y  c #57594C",
"u  c #50524D",
"i  c #70514F",
"p  c #476659",
"a  c #566A5A",
"s  c #666657",
"d  c #6F6E50",
"f  c #4A6B63",
"g  c #567766",
"h  c #4F776F",
"j  c #676864",
"k  c #787869",
"l  c #71746F",
"z  c #4E5E62",
"x  c #3D2E42",
"c  c #9C3B44",
"v  c #AF4C55",
"b  c #947854",
"n  c #A9775A",
"m  c #B55B63",
"M  c #8A7772",
"N  c #9E6265",
"B  c #D85B69",
"V  c #D8596E",
"C  c #E75D73",
"Z  c #DD6373",
"A  c #DA697A",
"S  c #D06974",
"D  c #E36778",
"F  c #CE615B",
"G  c #81593F",
"H  c #578779",
"J  c #588B72",
"K  c #658878",
"L  c #6F8A74",
"P  c #999A2B",
"I  c #999837",
"U  c #8E892E",
"Y  c #A39D38",
"T  c #A29D2B",
"R  c #A8A52A",
"E  c #AAA43C",
"W  c #ABA839",
"Q  c #B4AB39",
"!  c #B9B438",
"~  c #B0AE2A",
"^  c #A2A622",
"/  c #C3BA3A",
"(  c #9B9946",
")  c #8E874C",
"_  c #A59E48",
"`  c #A8955A",
"'  c #A9A548",
"]  c #B3AB48",
"[  c #B8B549",
"{  c #A8A758",
"}  c #BBB757",
"|  c #B3AF54",
" . c #87877A",
".. c #90936C",
"X. c #AF8D6D",
"o. c #B3AF6C",
"O. c #9BA358",
"+. c #C4BA46",
"@. c #C3BD5C",
"#. c #C5BC53",
"$. c #C5BC64",
"%. c #C5BD72",
"&. c #E18478",
"*. c #C5C249",
"=. c #C9C35A",
"-. c #D5CB5A",
";. c #D8CF57",
":. c #CAC367",
">. c #D5CA66",
",. c #DAD366",
"<. c #D5CA71",
"1. c #DBD374",
"2. c #C9C376",
"3. c #E2D770",
"4. c #EAE37F",
"5. c #CCC53B",
"6. c #687580",
"7. c #D47384",
"8. c #E6778A",
"9. c #E87D94",
"0. c #36A699",
"q. c #599687",
"w. c #4E9691",
"e. c #669687",
"r. c #779889",
"t. c #728D8B",
"y. c #4BA898",
"u. c #57AA99",
"i. c #59B19E",
"p. c #57AE8D",
"a. c #6AA698",
"s. c #67B29B",
"d. c #76AB93",
"f. c #4AACA3",
"g. c #57ACA5",
"h. c #47B2A3",
"j. c #5AB3A8",
"k. c #5AB8B1",
"l. c #67ACA6",
"z. c #63B4AB",
"x. c #6BB9AD",
"c. c #67B4A9",
"v. c #74B3AD",
"b. c #73BAAD",
"n. c #79B6AA",
"m. c #6AB9B4",
"M. c #73BDB3",
"N. c #7BBCB4",
"B. c #76B9B7",
"V. c #78ADA8",
"C. c #6BC4B9",
"Z. c #7CC1B5",
"A. c #74C4BD",
"S. c #7CC4BB",
"D. c #75C3B6",
"F. c #77C1AE",
"G. c #7AC8C4",
"H. c #67C3C1",
"J. c #96988B",
"K. c #8F968B",
"L. c #B09292",
"P. c #84A69A",
"I. c #8DAC94",
"U. c #A4A39C",
"Y. c #B2B08F",
"T. c #87B4AA",
"R. c #87BBB6",
"E. c #97B9B6",
"W. c #95ACA5",
"Q. c #AEB6AD",
"!. c #CF8D90",
"~. c #E48695",
"^. c #E88F9A",
"/. c #EB9AA6",
"(. c #F499AA",
"). c #C7BAAD",
"_. c #E8A4AC",
"`. c #ECA5B2",
"'. c #E9ACB7",
"]. c #EAB4BD",
"[. c #F1ABB5",
"{. c #DB9AA8",
"}. c #83C3BB",
"|. c #8AC5BC",
" X c #85C7B9",
".X c #96C6BB",
"XX c #90CAB6",
"oX c #A5C9BD",
"OX c #B7C4B5",
"+X c #BFC292",
"@X c #DAD698",
"#X c #D2CF8F",
"$X c #E6DD8D",
"%X c #EAE388",
"&X c #EAE397",
"*X c #F0E89D",
"=X c #C6C4B7",
"-X c #D6D5B6",
";X c #CFCFB7",
":X c #F4F3B9",
">X c #EBE7B0",
",X c #E4DDAE",
"<X c #EDBBC4",
"1X c #F2BCC6",
"2X c #8BC4C1",
"3X c #8CC9C3",
"4X c #86CAC6",
"5X c #94CAC3",
"6X c #9ACCC3",
"7X c #97C9C7",
"8X c #9AD2C9",
"9X c #93D4CF",
"0X c #A6CDC7",
"qX c #A9D4CB",
"wX c #B7D5CB",
"eX c #A8D7D2",
"rX c #B7DAD5",
"tX c #ADCAC9",
"yX c #BBE2D8",
"uX c #C6D6CC",
"iX c #D7D9C9",
"pX c #C7DBD6",
"aX c #D8DBD6",
"sX c #C8C7C6",
"dX c #EEC5C9",
"fX c #F3C5CB",
"gX c #F5CBD3",
"hX c #F5D7DA",
"jX c #E7D8D0",
"kX c #CDE2DC",
"lX c #C7E3DB",
"zX c #D9E6DA",
"xX c #D6E8CF",
"cX c #EAEAC8",
"vX c #E8E7D9",
"bX c #F5F5D8",
"nX c #F2EFCF",
"mX c #CAE6E4",
"MX c #D8EAE4",
"NX c #DEF2EB",
"BX c #E5ECE3",
"VX c #ECECE4",
"CX c #EAE8E6",
"ZX c #F3EAE4",
"AX c #EBF3E7",
"SX c #F3F3E4",
"DX c #F3F4EC",
"FX c #F5FAEC",
"GX c #F8FAE9",
"HX c #F5FAF3",
"JX c #FAFDF4",
"KX c #FCFEF9",
"LX c #F5F7F4",
"PX c #ECF5F2",
"IX c #F2DFE1",
"UX c NONE",
/* pixels */
"UXUXUXUXUXUXUXUXUXUXUXUXUXUXUXUXUXUXUXUXUXUXUXUXUXUXUXUXUXUXUXUXUXUXj UXUXUXUXUXUXUXUXUXUXUXUXUXUXUXUXUXUXUXUXUXUXUXUXUXUXUXUXUX",
"UXUXUXUXUXUXUXUXUXUXUXUXUXUXUXUXUXUXUXUXUXUXUXUXUXUXUXUXUXUXUXl iX-XCXQ.UXUXUXUXUXUXUXUXUXUXUXUXUXUXUXUXUXUXUXUXUXUXUXUXUXUXUXUX",
"UXUXUXUXUXUXUXUXUXUXUXUXUXUXUXUXUXUXUXUXUXUXUXUXUXUXUXUXUXUX% iX=XGXKXPXl K.Y.< K.UXUXUXUXUXUXUXUXUXUXUXUXUXUXUXUXUXUXUXUXUXUXUX",
"UXUXUXUXUXUXUXUXUXUXUXUXUXUXUXUXUXUXUXUXUXUXUXUXUXUXUXUXUX@ M SXGXKXKXKXZXjX<X`.'.: UXUXUXUXUXUXUXUXUXUXUXUXUXUXUXUXUXUXUXUXUXUX",
"UXUXUXUXUXUXUXUXUXUXUXUXUXUXUXUXUXUXUXUXUXUXUXUXUXUXUXUXU.X.SXKXDXJXKXKXGXCXhX1X`.  UXUXUXUXUXUXUXUXUXUXUXUXUXUXUXUXUXUXUXUXUXUX",
"UXUXUXUXUXUXUXUXUXUXUXUXUXUXUXUXUXUXUXUXUXUXUXUXUXUXUX).vXVXDXDXSXJXJXLXLXVXhX1X/.< O U.o UXUXUXUXUXUXUXUXUXUXUXUXUXUXUXUXUXUXUX",
"UXUXUXUXUXUXUXUXUXUXUXUXUXUXUXUXUXUXUXUXUXUXUXUXUXUXUX;X1XgXgXZXDXJXGXSXCXIXgXgX<Xi 9.: SXl UXUXUXUXUXUXUXUXUXUXUXUXUXUXUXUXUXUX",
"UXUXUXUXUXUXUXUXUXUXUXUXUXUXUXUXUXUXUXUXUXUXUXUXUXUX& fX1X[.].gXIXSXZXZXCXhX1X1X'.< 8.N IXk UXUXUXUXUXUXUXUXUXUXUXUXUXUXUXUXUXUX",
"UXUXUXUXUXUXUXUXUXUXUXUXUXUXUXUXUXUXUXUXUXUXUXUXUX6 1X].'.`.'.1XhXSXAXvXhXdX].<X'.k 8.!.jXCXUXUXUXUXUXUXUXUXUXUXUXUXUXUXUXUXUXUX",
"UXUXUXUXUXUXUXUXUXUXUXUXUXUXUXUXUXUXUXUXUXUXUXUXUX=XhX].`.(.(.'.fXZXZXZXhXfXfX[.'.i 8.!.vXJX> UXUXUXUXUXUXUXUXUXUXUXUXUXUXUXUXUX",
"UXUXUXUXUXUXUXUXUXUXUXUXUXUXUXUXUXUXUXUXUXUXUXUXU.jXIX].`.(./.`.gXvXvXhXgXgX1X'.(.1 8.7.BXHXLXUXUXUXUXUXUXUXUXUXUXUXUXUXUXUXUXUX",
"UXUXUXUXUXUXUXUXUXUXUXUXUXUXUXUXUXUXUXUXUXUXUXUX< fXhXjXfX_.`.'.fXnXhXgXfX].]._.9.2 8._.CXJXCXUXUXUXUXUXUXUXUXUXUXUXUXUXUXUXUXUX",
"UXUXUXUXUXUXUXUXUXUXUXUXUXUXUXUXUXUXUXUXUXUXUXUX).1XCXhXfX[.`.'.fXhXjXdXfXfX].`.8.0 7.7.CXKXLX  UXUXUXUXUXUXUXUXUXUXUXUXUXUXUXUX",
"UXUXUXUXUXUXUXUXUXUXUXUXUXUXUXUXUXUXUXUXUXUXUXUX<X(.dXhXIXhX1X<XdXfXdX<XdXfX'.~.8.v 9.x IXDXLX  UXUXUXUXUXUXUXUXUXUXUXUXUXUXUXUX",
"UXUXUXUXUXUXUXUXUXUXUXUXUXUXUXUXUXUXUXUXUXUXUXUX'.`.`.1XhXhXdXfXdXfX'._.].'./.7.7.7.7.IXhXCXZX  UXUXUXUXUXUXUXUXUXUXUXUXUXUXUXUX",
"UXUXUXUXUXUXUXUXUX-XvXX UXUXUX=XSXbX% UXUX  t UX<X'.(.(.[.fX<X1XfXfX'.{.^.^.8.A v 7.L.1X1XgXhXQ.UXUXUXUXUXUXUXUXUXUXUXUXUXUXUXUX",
"UXUXUXUXUXUXUXUXUXDXJXZXQ.u UXUXDXJXGXUXUX>XbXAXt {.9.D A 9.`.`.'._./.~.8./.7.A v 7._.[.'.[.[.M UXUXUXUXUXUXUXUXUXUXUXUXUXUXUXUX",
"UXUXUXUXUXUXUXUXiXJXJXKXJXnX  UXd nXbX6 UX).$XSXHX8.V V Z C D ~._./._./.!.7.C 7.S 1 /./.^./.(.M UXUXUXUXUXUXUXUXUXUXUXUXUXUXUXUX",
"UXUXUXUXUXUXUXUXk vXKXGXnX*X&X8 UX,X%XbXUXs 1.>XvXN D Z D Z Z 7./._././.7.D V c m S A 8.~.~.~.o UXUXUXUXUXUXUXUXUXUXUXUXUXUXUXUX",
"UXUXUXUXUXUXUXUX6 o DXGXnX*X3.4.@XX <.1.d s >.>.&XO Z A C A V A 7./.~.V B C S 2 B B B D V 9.~.UXUXUXUXUXUXUXUXUXUXUXUXUXUXUXUXUX",
"UXUXUXUXUXUXUXUXVXSXVX>X$X;.1.<.=.:.E } -.X >.>.<.@X7.7.< Z < 7.A Z B B F v S B B C B B D 9.O UXUXUXUXUXUXUXUXUXUXUXUXUXUXUXUXUX",
"UXUXUXUXUXUXUXUXvXDXnX&X<.7 @.=.:.' E [ / $.$.%.} =.N < ,X0 1 4 B A F B F &.C i F V B B D /.UXUXUXUXvXM * UXs K.UXUXUXUXUXUXUXUX",
"UXUXUXUXUXUXUXUX: K.cX%X;.@.8 #X@.=.] Q ! [ *.o.9 +.= < ,.i 7 ! @ F #Xv m B 2 { B D A Z A t.UXUXUXJXJXJXX J.vXnX% UXUXUXUXUXUXUX",
"UXUXUXUXUXUXUXUXUXUXUX6 <.<.$.#X$ ] } } } ' ( _ 4 ' #X@X;.. . ! *.8 } ) . 4 ' 8 Z V m 8 X UXUX .DXFXJXJ.>X&X>XSX .UXUXUXUXUXUXUX",
"UXUXUXUXUXUXUXUXs i #X@X:.@.} [ 2.8 | W ] ' ' ' 4 Y _ | :.( ' W ! ! +.#.T Y Y O S Z & ZXY.UXs #X%X:X>X&X3.,.M UXUX* k cXxX= UXUX",
"UXUXUXUXUXUXUXUXQ.cX$X$X=.#.@.} =.U 8 7 ' W ' O.9 W E _ :.P W P / ! / R Q P R @.O...vXcXUXO [ 5.5.,.,.>.#.X . iX,X%X$X:XFXAXL UX",
"UXUXUXUXUXUXUXUX .nX,X#X=.$.*.$.9 T @.@ 4 ' ( W 9 ' _ _ ' #X1.> / [ Y Y T Y T T R U.:X3 4 +.*.[ Q ;.;.-.-.$.-.-.-.3.$XiXo #XUXUX",
"UXUXUXUXUXUXUXUXUX& ,X-X:.:.] o.R 4 ' ] 5 5.L P 9 ' E W ! o.:.4 ; ] . T E Y T T   DXCXY.*.@.=.[ ,.,.>.+.#.$.>.,.-.3.,XnXbXSX=XUX",
"UXUXUXUXUXUXUX .UXUXUXcX{ $.[ $.7 ~ ' P Y 9 ' 4 9 O.] ' { #.W X.G b X.b ).& $ , %X%X<.$.#.| +.U #.-.#./ ! ! -.,.,.*.,.:XJXJXJX  ",
"UXUXUXUXUXUXUXaXzXiXOX7 W.O...; + o k Y... .* + @ O.I [ ] ] | $Xi X.!.` n X.b =X%X,.*.! [ ] ] $.5.*.#.E Q Q +.+.*.;.4.:XbXJXKXUX",
"UXUXUXUXUXUXUXzXwX5XN.b.tXiXcXiXyXeXn.p.d.d.p.h.g.p.a $ o.[ | } 4 n X.` ) 2 . nX%X>.] ] I T 5 T Q ] ` / +./ ! *.=.>.*X:XGXJXJXUX",
"UXUXUXUXUXUXUX% b.M.V..XaXBXlXrXoXXXs.p.j.p.J p.u.a.j.z.R.+ ..@Xo.!.X.n n 7 ZX:X1.Q ( ( I P _ Y R R ! W #.O.o ' [ -.3.>XGXFXJXUX",
"UXUXUXUXUXUXUX; l.b.R.lXvXBXpXrXoXZ.F.s.p.p.y.p.J q i.j.q X l k l s 6 o & tXDX$X] W W U R 8 Y _ ^ 7 $ 6 % ,.[ ! ~ -.,.,.:XSXbXUX",
"UXUXUXUXUXUXUX= .Xn.pXzXBXAXcXuXXXT.Z. Xn.u.i.s.p.a p.c.wXVXGXJXJXCXDX@ @ E.,X] ! ~ ' 9 O.I ! 3 P > o., ~ ' 9 [ / @.y # %   j U.",
"UXUXUXUXUXUXUX; t.8XkXBXAXa W.L L L V.}.S.S.F.s.C.i.g.6XAXFXFXLXCX% O # & E.| ] [ ! ' W O.. 2.-   E R ] [ U W Q / / $XnXs UXUXUX",
"UXUXUXUXUXUXUX; 0X2XkXBXSX=XP.t.L J XXN.Z.S.Z.M.x.x.6XlXmXLXKXGX  % & & X - . @.~ ^ $ . 2.d o.^ ] | U Y ~ ^ P E #.-.<.*XcX% UXUX",
"UXUXUXUXUXUXUXQ.2X.XaXBXAXvXW.d.L XXS.F.M.Z.}.N.XX6X5X8X8XrXpXeXu % % O V.t.b.P.o $ Q o.{ Y R ] Q Q Y 5 Q . %.Q [ :XDX6 6 UXUXUX",
"UXUXUXUXUXUXL tXt.v.2X7XlXBXr.r.P. XS.D.M.D.N.N.6X5X7X5XM.x.M.z.uX% O * 6.R.XXb.F.d.$ O._ Y ^ X ] Q ] Q U >.O.: +X:XGXs UXUXUXUX",
"UXUXUXUXUXUXaXqX7XR.}.B.R.rXL Q.6XS. XS.D.B.2X2X9XS.m.M.M.F.m.M.B.: @ l q  X8X5XXXXXoXyXo O.P 2.UXo #.[ +.#.,XUXUXX . UXUXUXUXUX",
"UXUXUXUXUX6 OX0XE.R.A.R.N.qXrX0X9Xs.p 3 m.R.3X7XR.H M.G.m.j.l.c.m.f = oXwXqXqXyXxXAXNXzXzXoXO ' k UXUXo *X&XnXM UXUXUXUXUXUXUXUX",
"UXUXUXUXUXVXk 0XR.T.N.}.N.8XqX6XF.h q.r G.|.5X2Xs.b.2Xz.z.j.k.i.l.2Xe.T.zXAXFXLXFXHXKXKXKXBX.X3 UXUXUXUXUX% @ UXUXUXUXUXUXUXUXUX",
"UXUXUXUXy vXsXq v.e B.S.2XE.eX6XS.e h V.M.v.q.5Xb. Xc.l.p u.c.g.c.3X3X8XoXSXHXKXFXKXKXKXLXvXwX.Xt UXUXUXUXUXUXUXUXUXUXUXUXUXUXUX",
"UXUXUXUXk ;XvXuXl.w.N. X5X7XrX0XF. XJ n.j.g.0X0X5Xl.E.v v v.z.j.x.2X7X7X6XvXFXKXKXKXKXKXHXI.K 8XA.f UXUXUXUXUXUXUXUXUXUXUXUXUXUX",
"UXUXUXUXsX .vXM ; z.T.5X6X6XrXtX XF.d.B.c.w.pXMXE.- 0 v c K g.j.S.2X4X4X6XNX;X$ LXFXHXLXAX# E.4X9XE.X UXUXUXUXUXUXUXUXUXUXUXUXUX",
"UXUXUXUXvXj vXM 0 v.T.|.6XtXkXpX|.b.Z.Z.c.r kXVXt.uX1 c < u f.M.2X4X5X|.kXLXHXMXiXl zXNXlXeX4X4X5Xe.I.UXUXUXUXUXUXUXUXUXUXUXUXUX",
"UXUXUXUXvXU.jXL.i E.E.}.6XrXBXMXqXN.Z. XV.a.wXL aXCX8 v O u C.4X4X3X8XqXHXJXKXKXAXqX% kXrX8X X3Xq.q.a.+ UXUXUXUXUXUXUXUXUXUXUXUX",
"UXUXUX .vXtXU.).!.# 5X5X|.qXNXAXpX6X|.|.Z..X@ ;XDXDX< ^.= j 2XS.4X|.T.BXKXJXHXJXKXMXqX> yXoX XS.l H J f UXUXUXUXUXUXUXUXUXUXUXUX",
"UXUXUXvXzX6XT.V.w k 0X X X.XMXVXvXlX0X6XS.5XBXPXCXPXQ.'.iXi 7X2XS.p BXAXKXKXKXLXHXMX8X|.OXeX4XA.C.oXf g UXUXUXUXUXUXUXUXUXUXUXUX",
"UXUXUXDXpX5X.X}.B.b.}.}.7X5XmXtX5X|.7XrXoXqXtXwXOXy + u aXz 7XB.0XBXHXLXKXKXLXNXNXyX9Xm.> 4XG.C.C.C.s.J I.UXUXUXUXUXUXUXUXUXUXUX",
"UXUXUXj aX6X X}.b.M.A.h 7XeX9XwX|.}.2X|.rXCXMXrXqXrXrXwXtXtX7XB.K.HXKXKXKXHXPXrX9XrX Xx.eX4XC.m.C.C.A.S.l UXUXUXUXUXUXUXUXUXUXUX",
"UXUXUXUXuX5Xl.l.j.m.m.R.T.eXv.a.z.B.2X}.5XeXtXwXuXrXeXeXeX7X4XB.BXPXKXPXmXmXrXeXG.9Xm.j.v.4Xk.f.h.j.C.D.W.UXUXUXUXUXUXUXUXUXUXUX",
"UXUXUXUX= * K.=XM X V.a.v.v.z.z.z.x.v.v.v.B.m.B.R.4X8X7X9X9Xe h MXmXpXr.f 9X3X3X4X9Xz.z.B.3Xh.y.H g.i.D.UXUXUXUXUXUXUXUXUXUXUXUX",
"UXUXUXUXj r.LXl sXBXvX3 P.V.W.w - X 3 ; a * a * > - t.R.R.B.l.q mXr.q.q. XC.m.4X9X4Xz.B.m.l.g.w f y.y.l.UXUXUXUXUXUXUXUXUXUXUXUX",
"UXUXUXUXL J k a.K X aXpXaXuXuXeXrXyXrXrXrXyXyXyXK.zXuXMXW.-Xv.6.eX3Xg K 3XS.G.A.9X}.z.z.l.0.0.y.p h.h.N.UXUXUXUXUXUXUXUXUXUXUXUX",
"UXUXUXX 7 Q.oXm.y.y.e.* Q.wXkXkXkXmXmXmXpXmXmXmXmXLXK.lXmXrXf t.G.9X2XG.4XA.S.7XT.K q.j.B.y.y.g.h.h.j.o UXUXUXUXUXUXUXUXUXUXUXUX",
"UXUXUXuXeX0XN.z.g.y.y.l.w.q : sXpXpXpXlXMXmXkXMXmXpXpX .r.}.H.- G.G.G.4XA.A.2XJ a.H h k.q f.y.f.h.h.a.UXUXUXUXUXUXUXUXUXUXUXUXUX",
"UXUXa 0X|.m.c.x.j.f g y.u.y.y.u.J d.J * * # 6 . d T.}.G.G.G.z.e B.B.G.S.G.G.XXd.q.J H m.w.y.h.h.g.s.w > UXUXUXUXUXUXUXUXUXUXUXUX",
"UXUXP.M.M.b.x.x.g.3 f m.u.w.u.h 3 3 f V.c.h.z.u.u.z.B.B.A.m.g.a.j.G.4XG.H.4X9XR.h J z.z.k.h.f.h.k.w f.V.UXUXUXUXUXUXUXUXUXUXUXUX",
"UXU.T.M.x.M.V.g.l.z.m.z.h : t.H J H H K * 3 p 2Xl.j.k.m.l.f.f.l.e.A.G.A.4XG.G.H.c.j.k.w.h.y.j.h.h j.j.z.- UXUXUXUXUXUXUXUXUXUXUX",
"UXvXq z.x.T.iX- l.v.p UXUX .e.L K K e.K J K K t UXUXUXUXUXUXUXUX; 2X4X4X9XG.C.C.C.z.n.2Xj.i.z.h N.x.M.}.t.UXUXUXUXUXUXUXUXUXUXUX",
"j Q.8 6 z vXAXpXh K.UXUXUXt UXUXUXUXUXUXUXJ.UXUXUXUXUXUXUXUXUXU.KXj G.G.4XE.p v.m.b.iXX g 3 3 N.W.= X .XE.UXUXUXUXUXUXUXUXUXUXUX",
"UXUXUXUXUXUXu @ UXUXUXUXUXUXUXUXUXUXUXUXUXUXUXUXUXUXUXUXUXUXUXLXMXBX; r.T.VXPXw s.z PXHXUXUXUXy UXUXUXUXUXUXUXUXUXUXUXUXUXUXUXUX",
"UXUXUXUXUXUXUXUXUXUXUXUXUXUXUXUXUXUXUXUXUXUXUXUXUXUXUXUXUXUXQ.; UXUXUXUXu KXCXj UXUXUX6 Q.UXUXUXUXUXUXUXUXUXUXUXUXUXUXUXUXUXUXUX",
"UXUXUXUXUXUXUXUXUXUXUXUXUXUXUXUXUXUXUXUXUXUXUXUXUXUXUXUXUXUXUXUXUXUXUXUXUXUXk UXUXUXUXUXUXUXUXUXUXUXUXUXUXUXUXUXUXUXUXUXUXUXUXUX"
};
